# xmcd
#
# Track frame offsets:
#	150
#	18655
#	29714
#	38337
#	45325
#	62933
#	71956
#	83217
#	94478
#	107940
#	127278
#	139131
#	154021
#	164863
#	176999
#	189825
#	203395
#	217058
#	230157
#	243160
#
# Disc length: 3475 seconds
#
# Revision: 0
# Processed by: cddbd v1.5.2PL0 Copyright (c) Steve Scherf et al.
# Submitted via: audiograbber 1.83.01
#
DISCID=300d9114
DTITLE=ZZZ - Rote Lieder CD 2
DYEAR=2012
DGENRE=DDR
TTITLE0=Chor and Orchester Sigurd Brauns - Dank euch, ihr Sowjetsoldaten
TTITLE1=Soldatenchor -Feliks Dzierzynski- - Du hast ja ein Ziel vor den Augen
TTITLE2=Zentraler Pionier und Jugendchor »Edgar André« Berlin t Ensemble and Chor
TTITLE2=and Orchester - Lenin, unser 
TTITLE3=Chor und Orchester des Erich Weinert-Ensembles - Marsch der Nationalen 
TTITLE3=Volksarmee
TTITLE4=Großer Kinderchor des Berliner Rundfunks - Soldaten sind vorbeimarschie
TTITLE4=rt (Gute Freunde)
TTITLE5=Kerstin Parlitz and der kleine Rundfunk-Kinderchor Leipzig - Hör ich die 
TTITLE5=Soldaten singen
TTITLE6=Kampfgruppenchor des Staatlichen Rundfunkkomitees - Wir sind wachsam
TTITLE7=Chor und Orchester des Wachregiments »Feliks Dzierzynski« - Wir tragen 
TTITLE7=die roten Spiegel
TTITLE8=Oktoberklub - Wir sind überall
TTITLE9=Ensemble »Klassenbrüder - Waffenrüder« Karl Marx Stadt- Aufk - Kundscha
TTITLE9=fterlied (Euer Dienst ist die Aufk
TTITLE10=Oktoberklub and Thomas Natschinski and seine Gruppe - Sag mir, wo du stehs
TTITLE10=t
TTITLE11=Fred Frohberg and Blamu-Jatz-Ochestrion - Ami Go Homem
TTITLE12=Kurt Demmler and der Oktoberklub - Was machen wir zu Pfingsten
TTITLE13=Oktoberklub - Wenn Leute unser Land verlassen [1988]
TTITLE14=Singeclub "Manifest" der PH "Karl Liebknecht" Potsdam - Hab'n se nicht
TTITLE14=noch Altpapier
TTITLE15=Oktoberklub - Alle sagen drüben DDR
TTITLE16=Kurt Demmler and venceremos-club Berlin - Lied aus dem fahrenden Zug zu 
TTITLE16=singen
TTITLE17=Oktoberklub - Oktobersong
TTITLE18=Oktoberklub - Mach doch mal einen Verbesserungsvorschlag
TTITLE19=Dean Reed - Wir sagen ja
EXTD=
EXTT0=
EXTT1=
EXTT2=
EXTT3=
EXTT4=
EXTT5=
EXTT6=
EXTT7=
EXTT8=
EXTT9=
EXTT10=
EXTT11=
EXTT12=
EXTT13=
EXTT14=
EXTT15=
EXTT16=
EXTT17=
EXTT18=
EXTT19=
PLAYORDER=
